# xmcd
#
# Track frame offsets:
#	150
#	19714
#	39926
#	62210
#	83109
#	98396
#	116405
#	138469
#	156801
#	175806
#	198872
#	215761
#	234301
#	251798
#	272051
#	298222
#	326847
#
# Disc length: 4726 seconds
#
# Revision: 0
# Processed by: cddbd v1.5.2PL0 Copyright (c) Steve Scherf et al.
# Submitted via: EasyCDDAExtractor 8.2.1.1
#
DISCID=f0127411
DTITLE=Марем Ташаева - Деган Мерзаш
DYEAR=1900
DGENRE=
TTITLE0=Адамаш
TTITLE1=Бераллин ц1а
TTITLE2=Малыш
TTITLE3=Нана
TTITLE4=Йина латта
TTITLE5=Вицлур ву
TTITLE6=Безаман ц1е
TTITLE7=Дийци ахь туьранаш
TTITLE8=Цу хенахь
TTITLE9=Селхана
TTITLE10=Сан дог
TTITLE11=Дийцахьа, доттаг1а
TTITLE12=Д1аийжа, сан г1ала
TTITLE13=Нохчийчоь
TTITLE14=Мух1ажарийн илли
TTITLE15=Адамашка
TTITLE16=клип  "Малыш"
EXTD=
EXTT0=
EXTT1=
EXTT2=
EXTT3=
EXTT4=
EXTT5=
EXTT6=
EXTT7=
EXTT8=
EXTT9=
EXTT10=
EXTT11=
EXTT12=
EXTT13=
EXTT14=
EXTT15=
EXTT16=
PLAYORDER=
